<svg width="24" height="24" viewBox="0 0 24 24" fill="none" xmlns="http://www.w3.org/2000/svg">
<path d="M16.2343 16.2334L15.6695 16.7998L16.8007 17.931L17.3671 17.3662L16.2343 16.2334ZM21.6007 11.9998L22.1671 12.5662L22.7319 11.9998L22.1671 11.4334L21.6007 11.9998ZM17.3671 6.63336L16.8007 6.06856L15.6695 7.19976L16.2343 7.76616L17.3671 6.63336ZM6.63433 17.3662L7.20073 17.931L8.33193 16.7998L7.76713 16.2334L6.63433 17.3662ZM2.40073 11.9998L1.83433 11.4334L1.26953 11.9998L1.83433 12.5662L2.40073 11.9998ZM7.76713 7.76616L8.33193 7.19976L7.20073 6.06856L6.63433 6.63336L7.76713 7.76616ZM17.3671 17.3662L22.1671 12.5662L21.0343 11.4334L16.2343 16.2334L17.3671 17.3662ZM22.1671 11.4334L17.3671 6.63336L16.2343 7.76616L21.0343 12.5662L22.1671 11.4334ZM7.76713 16.2334L2.96713 11.4334L1.83433 12.5662L6.63433 17.3662L7.76713 16.2334ZM2.96713 12.5662L7.76713 7.76616L6.63433 6.63336L1.83433 11.4334L2.96713 12.5662ZM12.8119 2.26855L9.61193 21.4686L11.1895 21.731L14.3895 2.53095L12.8119 2.26855Z" fill="#191927"/>
</svg>
