<svg viewBox="0 0 27 27" xmlns="http://www.w3.org/2000/svg">
<path d="M22.6125 10.3725C20.5763 10.3725 19.7438 8.9325 20.7563 7.16625C21.3413 6.1425 20.9925 4.8375 19.9688 4.2525L18.0225 3.13875C17.1338 2.61 15.9862 2.925 15.4575 3.81375L15.3337 4.0275C14.3212 5.79375 12.6562 5.79375 11.6325 4.0275L11.5087 3.81375C11.0025 2.925 9.855 2.61 8.96625 3.13875L7.02 4.2525C5.99625 4.8375 5.6475 6.15375 6.2325 7.1775C7.25625 8.9325 6.42375 10.3725 4.3875 10.3725C3.2175 10.3725 2.25 11.3287 2.25 12.51V14.49C2.25 15.66 3.20625 16.6275 4.3875 16.6275C6.42375 16.6275 7.25625 18.0675 6.2325 19.8337C5.6475 20.8575 5.99625 22.1625 7.02 22.7475L8.96625 23.8612C9.855 24.39 11.0025 24.075 11.5312 23.1862L11.655 22.9725C12.6675 21.2062 14.3325 21.2062 15.3562 22.9725L15.48 23.1862C16.0087 24.075 17.1563 24.39 18.045 23.8612L19.9913 22.7475C21.015 22.1625 21.3637 20.8462 20.7787 19.8337C19.755 18.0675 20.5875 16.6275 22.6238 16.6275C23.7938 16.6275 24.7612 15.6712 24.7612 14.49V12.51C24.75 11.34 23.7938 10.3725 22.6125 10.3725ZM13.5 17.1562C11.4862 17.1562 9.84375 15.5137 9.84375 13.5C9.84375 11.4862 11.4862 9.84375 13.5 9.84375C15.5138 9.84375 17.1562 11.4862 17.1562 13.5C17.1562 15.5137 15.5138 17.1562 13.5 17.1562Z" />
</svg>
